<svg xml:space="preserve" style="enable-background:new 0 0 1000 602.5;" viewBox="0 0 1000 602.5" y="0px" x="0px" xmlns:xlink="http://www.w3.org/1999/xlink" xmlns="http://www.w3.org/2000/svg" id="Layer_1" version="1.1">
<style type="text/css">
	.st0{fill:#603A38;}
</style>
<g>
	<polygon points="136.9,404.8 96.8,404.8 96.8,361.6 124.4,361.6 124.4,337.1 96.8,337.1 96.8,297.9 136.9,297.9 
		136.9,273.4 72.3,273.4 72.3,429.3 136.9,429.3" class="st0"></polygon>
	<path d="M179.9,404.5H208l4.4,24.7h24.9l-31.2-155.9h-24.5l-31.2,155.9h24.9L179.9,404.5z M193.9,324.2l9.8,55.9h-19.6
		L193.9,324.2z" class="st0"></path>
	<polygon points="263.2,429.3 287.7,429.3 287.7,297.9 312.7,297.9 312.7,273.4 238.3,273.4 238.3,297.9 263.2,297.9" class="st0"></polygon>
	<path d="M436.6,391.9v-14.2c0-12.9-4.1-22.3-12.3-28c5.9-5.5,8.9-13.5,8.9-24V311c0-6.2-1-11.7-2.9-16.5
		c-1.8-4.9-4.6-9-8.5-12.5c-6.5-5.8-15.1-8.7-25.6-8.7h-33.6v155.9h37c10.7,0,19.2-2.9,25.6-8.7c3.9-3.4,6.7-7.6,8.5-12.5
		C435.6,403.7,436.6,398.2,436.6,391.9 M387.1,297.9h9.1c4.5,0,7.6,0.8,9.4,2.4c2.1,2.1,3.1,5.6,3.1,10.7v14.5
		c0,5.2-1.1,8.9-3.3,11.1c-1.9,1.8-5,2.7-9.1,2.7h-9.1L387.1,297.9L387.1,297.9z M412,391.9c0,5-1,8.5-3.1,10.5
		c-1.8,1.6-4.9,2.5-9.4,2.5h-12.5v-41h12.5c4.1,0,7.2,0.9,9.1,2.7c2.2,2.1,3.4,5.8,3.4,11.1L412,391.9L412,391.9z" class="st0"></path>
	<polygon points="455.7,429.3 520.3,429.3 520.3,404.8 480.2,404.8 480.2,361.6 507.9,361.6 507.9,337.1 480.2,337.1 
		480.2,297.9 520.3,297.9 520.3,273.4 455.7,273.4" class="st0"></polygon>
	<polygon points="582.7,429.3 582.7,297.9 607.7,297.9 607.7,273.4 533.2,273.4 533.2,297.9 558.2,297.9 558.2,429.3" class="st0"></polygon>
	<polygon points="641.3,429.3 665.8,429.3 665.8,297.9 690.8,297.9 690.8,273.4 616.3,273.4 616.3,297.9 641.3,297.9" class="st0"></polygon>
	<polygon points="770.8,404.8 730.6,404.8 730.6,361.6 758.3,361.6 758.3,337.1 730.6,337.1 730.6,297.9 770.8,297.9 
		770.8,273.4 706.1,273.4 706.1,429.3 770.8,429.3" class="st0"></polygon>
	<path d="M814.9,366.7H826l12.7,62.6h25l-14-68.8c1.3-0.9,2.5-1.9,3.6-2.9c7.4-6.8,11.1-16.5,11.1-29.2v-16.7
		c0-12.5-3.7-22.1-11.1-29c-6.7-6.2-15.3-9.4-25.8-9.4h-37v155.9h24.5L814.9,366.7L814.9,366.7z M814.9,297.9h12.5
		c4.2,0,7.2,0.9,9.1,2.7c2.2,2.2,3.3,5.9,3.3,11.1v16.7c0,5.3-1.1,9-3.3,11.1c-1.9,1.8-5,2.7-9.1,2.7h-12.5V297.9z" class="st0"></path>
	<path d="M438.2,146.6c9,3.4,17.5,1.8,24.8-4.6c5.8-5.1,11.5-10.3,17.4-15.6c2.1-1.9,5.4-1.9,7.6,0
		c6.4,5.8,12.4,11.4,18.8,16.6c10,8.1,24.4,6.6,32.9-2.9c8.5-9.6,8.4-24.3-1.4-32.8c-16.4-14.2-33.4-27.8-50.6-41.9
		c-2.1-1.7-5.1-1.7-7.2,0c-17.4,14.4-34.7,28.6-51.6,43.1c-5.4,4.6-7,11.6-5.9,18.7C424.3,136.4,429.4,143.2,438.2,146.6
		 M439.2,114.5c13.6-11.2,27.3-22.4,41.3-34c2.1-1.7,5.1-1.7,7.2,0c14,11.5,27.7,22.6,41.2,33.9c6.2,5.2,6.7,12.5,1.9,18
		c-4.6,5.3-12.3,5.6-18.3,0.4c-7.1-6.2-14.1-12.7-21.1-19c-1.2-1.1-2.4-2.1-3.6-3.2c-2.2-1.9-5.4-1.9-7.6,0.1
		c-7.7,7.1-15.1,14-23,20.6c-3.1,2.6-7.4,4.7-11.3,5c-5,0.4-9.1-2.9-10.7-7.8C433.5,123.1,434.6,118.2,439.2,114.5" class="st0"></path>
	<path d="M545,163.2c-0.8-1.2-2-2-3.3-2.2c-23.8-4.5-41.1-2.3-51.5,6.6c-2.4,2.1-4.4,4.5-6,7.2c-1.6-2.7-3.6-5.1-6-7.2
		c-10.3-8.9-27.6-11.1-51.4-6.6c-1.3,0.2-2.5,1-3.3,2.2l-0.1,0.1c-0.7,1.3-0.9,2.6-0.6,3.9l0,0c6.3,23.6,16,38.2,28.7,43.5
		c8.1,3.4,17.3,3,27.5-1.1v16.8c0,1.4,0.5,2.7,1.5,3.5c1,1,2.2,1.5,3.5,1.5c0,0,0.1,0,0.1,0s0.1,0,0.1,0c1.3,0,2.6-0.5,3.5-1.4
		c1-0.9,1.5-2.2,1.5-3.6v-16.8c10.1,4.1,19.4,4.5,27.5,1.2c12.8-5.3,22.4-19.9,28.8-43.6c0.3-1.3,0.1-2.6-0.6-3.9L545,163.2z
		 M507.6,188.9c1.4-0.3,2.4-1.2,3.1-2.4c0.7-1.2,0.8-2.6,0.4-3.9c-0.4-1.3-1.3-2.3-2.5-3c-1.1-0.6-2.4-0.7-3.8-0.4
		c-5.5,1.6-10.3,3.9-14.4,6.8c1.3-4.5,3.4-8.1,6.5-10.6c7.2-6.2,19.9-8,37.5-5.3c-5.3,17.3-12.5,27.9-21.3,31.5
		c-6.3,2.6-13.9,1.8-22.4-2.4C494.7,194.5,500.4,191.1,507.6,188.9 M463.6,179.1c-1.3-0.3-2.5-0.2-3.7,0.4c-1.2,0.7-2.1,1.7-2.5,3
		c-0.4,1.3-0.3,2.7,0.4,3.9c0.7,1.2,1.8,2.1,3,2.4c7.3,2.2,13,5.6,17,10.2c-8.6,4.2-16.1,5-22.4,2.4c-8.8-3.6-15.9-14.2-21.3-31.5
		c17.7-2.7,30.3-0.9,37.5,5.3c3,2.5,5.2,6.1,6.5,10.6C474,183.1,469.1,180.8,463.6,179.1" class="st0"></path>
	<path d="M449.8,460.7c-5.1,0-9.3,1.5-12.6,4.5c-3.6,3.6-5.4,8.4-5.4,14.2v40.4c0,5.9,1.8,10.6,5.4,14.2
		c3.3,3,7.5,4.5,12.6,4.5c5.2,0,9.4-1.5,12.6-4.5c3.6-3.5,5.4-8.2,5.4-14.2V510h-12v9.8c0,2.7-0.5,4.5-1.5,5.4
		c-0.9,0.9-2.5,1.3-4.6,1.3c-2,0-3.5-0.4-4.5-1.3c-1.1-1-1.6-2.8-1.6-5.4v-40.4c0-2.6,0.5-4.4,1.6-5.4c0.9-0.9,2.4-1.3,4.5-1.3
		c2.1,0,3.6,0.4,4.6,1.3c1,0.9,1.5,2.8,1.5,5.4v6.7h12v-6.7c0-6-1.8-10.8-5.4-14.2C459.2,462.2,455,460.7,449.8,460.7" class="st0"></path>
	<path d="M494.6,460.7c-5.2,0-9.4,1.5-12.6,4.5c-3.6,3.5-5.4,8.2-5.4,14.2v40.4c0,6,1.8,10.8,5.4,14.2
		c3.2,3,7.4,4.5,12.6,4.5c5.2,0,9.4-1.5,12.6-4.5c3.6-3.5,5.4-8.2,5.4-14.2v-40.4c0-6-1.8-10.8-5.4-14.2
		C504,462.2,499.8,460.7,494.6,460.7 M500.7,519.8c0,2.7-0.5,4.5-1.6,5.4c-0.9,0.9-2.4,1.3-4.5,1.3c-2,0-3.5-0.4-4.5-1.3
		c-1.1-1-1.6-2.8-1.6-5.4v-40.4c0-2.6,0.5-4.4,1.6-5.4c0.9-0.9,2.4-1.3,4.5-1.3c2.1,0,3.6,0.4,4.5,1.3c1.1,0.9,1.6,2.8,1.6,5.4
		V519.8z" class="st0"></path>
	<path d="M865,497H529.9c-1.4,0-2.5,1.1-2.5,2.5c0,1.4,1.2,2.5,2.5,2.5H865c1.4,0,2.5-1.1,2.5-2.5
		C867.5,498.2,866.4,497,865,497" class="st0"></path>
	<path d="M407.4,497H72.3c-1.4,0-2.6,1.1-2.6,2.5c0,1.4,1.2,2.5,2.6,2.5h335.1c1.4,0,2.5-1.1,2.5-2.5
		C409.9,498.2,408.8,497,407.4,497" class="st0"></path>
	<polygon points="844.9,242 844.9,197.4 829,197.4 829,188.4 871.6,188.4 871.6,197.4 855.7,197.4 855.7,242" class="st0"></polygon>
	<polygon points="878.4,242 878.4,188.4 894.7,188.4 904.4,225 914,188.4 930.3,188.4 930.3,242 920.2,242 920.2,199.8 
		909.6,242 899.1,242 888.5,199.8 888.5,242" class="st0"></polygon>
</g>
</svg>
